<svg width="24" height="24" viewBox="0 0 24 24" fill="none" xmlns="http://www.w3.org/2000/svg">
<path d="M20.4444 3.49091C18.0444 1.22182 15.0222 0 11.7333 0C8.44444 0 5.33333 1.22182 3.02222 3.49091C2.66667 3.84 2.66667 4.45091 3.02222 4.71273C3.37778 4.97455 3.91111 4.97455 4.26667 4.71273C6.31111 2.70545 8.88889 1.65818 11.6444 1.65818C14.4 1.65818 17.0667 2.79273 19.0222 4.71273C23.1111 8.72727 23.1111 15.2727 19.0222 19.2873C17.0667 21.2945 14.4 22.3418 11.6444 22.3418C8.88889 22.3418 6.22222 21.2073 4.26667 19.2873C3.91111 18.9382 3.37778 18.9382 3.02222 19.2873C2.66667 19.6364 2.66667 20.16 3.02222 20.5091C5.42222 22.7782 8.44444 24 11.7333 24C15.0222 24 18.1333 22.9527 20.4444 20.5964C22.7556 18.24 24 15.2727 24 12.0436C24 8.81455 22.8444 5.76 20.4444 3.49091Z" fill="#13A518"/>
<path d="M4.17778 11.9564C4.17778 11.4327 3.82222 11.0836 3.28889 11.0836H0.888889C0.355556 11.0836 0 11.4327 0 11.9564C0 12.48 0.355556 12.8291 0.888889 12.8291H3.28889C3.82222 12.8291 4.17778 12.48 4.17778 11.9564Z" fill="#13A518"/>
<path d="M5.68889 11.9564C5.68889 12.48 6.04444 12.8291 6.57778 12.8291H13.7778L9.68889 16.8436C9.33333 17.1927 9.33333 17.7164 9.68889 18.0655C9.86667 18.24 10.0444 18.3273 10.3111 18.3273C10.5778 18.3273 10.7556 18.24 10.9333 18.0655L16.4444 12.6545C16.6222 12.48 16.7111 12.3055 16.7111 12.0436C16.7111 11.7818 16.6222 11.6073 16.5333 11.52L10.9333 6.02182C10.5778 5.67273 10.0444 5.67273 9.68889 6.02182C9.33333 6.37091 9.33333 6.89455 9.68889 7.24364L13.6 11.0836H6.57778C6.04444 11.0836 5.68889 11.4327 5.68889 11.9564Z" fill="#13A518"/>
</svg>
