<svg width="20" height="20" viewBox="0 0 20 20" fill="none" xmlns="http://www.w3.org/2000/svg">
<path d="M5.67607 14.7502L5.95677 14.4013V16.0508C5.95677 16.2411 6.08154 16.368 6.26862 16.368C6.4557 16.368 6.58047 16.2411 6.58047 16.0508V14.4013L6.86117 14.7502C6.98593 14.8771 7.17302 14.8771 7.29779 14.7819C7.42256 14.655 7.42256 14.4647 7.32895 14.3378L6.61162 13.4813C6.45569 13.2593 6.11269 13.291 5.98791 13.4813L5.23944 14.3378C5.11468 14.4647 5.14583 14.655 5.2706 14.7819C5.36422 14.8771 5.58247 14.8771 5.67607 14.7502Z" fill="#13A518"/>
<path d="M2.58857 14.7502L2.86927 14.4013V16.0508C2.86927 16.2411 2.99404 16.368 3.18112 16.368C3.3682 16.368 3.49297 16.2411 3.49297 16.0508V14.4013L3.77367 14.7502C3.89844 14.8771 4.08552 14.8771 4.21029 14.7819C4.33506 14.655 4.33506 14.4647 4.24145 14.3378L3.52412 13.4813C3.33704 13.2593 3.02519 13.291 2.90041 13.4813L2.15195 14.3378C2.02718 14.4647 2.05833 14.655 2.1831 14.7819C2.27672 14.8771 2.49497 14.8771 2.58857 14.7502Z" fill="#13A518"/>
<path d="M0 1.80809V16.4315C0 17.4149 0.77963 18.2395 1.77763 18.2395H16.6226L17.5895 19.4766C18.0884 20.111 18.9617 20.1745 19.5542 19.6352C20.1156 19.0959 20.1467 18.2395 19.6478 17.7002C19.6167 17.6368 19.6478 17.6685 18.681 16.7486C18.7121 16.6534 18.7121 16.5267 18.7121 16.4314V1.80808C18.7121 0.824651 17.9325 0 16.9345 0H1.7778C0.779798 0 0.000167695 0.824801 0.000167695 1.80808L0 1.80809ZM19.1487 18.1127C19.3983 18.3982 19.3983 18.874 19.0864 19.1278C18.7746 19.4133 18.2755 19.3498 18.0261 19.0326C17.9949 19.0009 16.1237 16.5582 16.1549 16.5901L16.9345 15.8922C17.0281 16.0191 19.0553 18.0176 19.1487 18.1127ZM15.6871 15.3213C16.0614 14.9724 16.3732 14.5283 16.4355 14.4331L16.9033 14.9724C16.9345 15.0041 16.9345 15.0358 16.9345 15.0358C16.9345 15.0358 16.9345 15.0675 16.9033 15.0992C16.8722 15.1309 15.3439 16.5267 15.3752 16.4949C15.3441 16.5266 15.3441 16.5266 15.3129 16.5266C15.2818 16.5266 15.2506 16.5266 15.2506 16.4949L14.7828 15.9556C15.0321 15.8288 15.4064 15.575 15.6871 15.3213ZM9.76164 14.56C8.29585 12.9106 8.45177 10.4046 10.0423 8.94548C11.664 7.45458 14.1278 7.61317 15.5623 9.23098C16.997 10.8488 16.9034 13.3546 15.2817 14.8455C13.6598 16.3363 11.1959 16.1777 9.76164 14.56ZM7.29786 0.634291H11.3833V5.3288L9.66795 4.31385C9.48087 4.21864 9.23133 4.21864 9.04424 4.31385L7.29775 5.36065L7.29786 0.634291ZM0.623712 1.80801C0.623712 1.17362 1.12264 0.634291 1.77766 0.634291H6.67392V5.36095C6.67392 5.70983 6.95462 5.99535 7.29764 5.99535C7.39125 5.99535 7.51588 5.96366 7.60949 5.90013L9.35598 4.85333L11.1025 5.90013C11.1961 5.96351 11.2896 5.99535 11.4143 5.99535C11.5703 5.99535 11.7262 5.93197 11.851 5.80506C11.9757 5.67816 12.038 5.51956 12.038 5.36096L12.0382 0.634299H16.9344C17.5582 0.634299 18.0884 1.14177 18.0884 1.80802V16.1775L17.4022 15.5115C17.4958 15.3846 17.5582 15.2577 17.5582 15.0991C17.5582 14.9088 17.4958 14.7183 17.3711 14.5598L16.7474 13.8618C17.4958 12.2441 17.2776 10.214 15.9989 8.81815C14.3149 6.91485 11.4456 6.78793 9.60558 8.50096C7.73433 10.2138 7.64086 13.1323 9.29372 15.0038C10.5411 16.3995 12.4748 16.8754 14.1587 16.2726L14.7825 16.9705C14.9072 17.1291 15.1255 17.2243 15.3127 17.2243C15.4686 17.2243 15.5934 17.1926 15.7181 17.0974L16.1236 17.6367H1.77776C1.15405 17.6367 0.623804 17.1293 0.623804 16.463L0.623712 1.80801Z" fill="#13A518"/>
<path d="M10.2606 10.4045C10.0736 10.4045 9.94879 10.5314 9.94879 10.7217V13.0691C9.94879 13.2594 10.0736 13.3863 10.2606 13.3863C10.4477 13.3863 10.5725 13.2594 10.5725 13.0691V10.7217C10.5725 10.5314 10.4166 10.4045 10.2606 10.4045Z" fill="#13A518"/>
<path d="M11.4457 10.4045C11.2586 10.4045 11.1338 10.5314 11.1338 10.7217V13.0691C11.1338 13.2594 11.2586 13.3863 11.4457 13.3863C11.6327 13.3863 11.7575 13.2594 11.7575 13.0691V10.7217C11.7575 10.5314 11.6327 10.4045 11.4457 10.4045Z" fill="#13A518"/>
<path d="M12.6619 10.4045C12.4748 10.4045 12.3501 10.5314 12.3501 10.7217V13.0691C12.3501 13.2594 12.4748 13.3863 12.6619 13.3863C12.849 13.3863 12.9738 13.2594 12.9738 13.0691V10.7217C12.9738 10.5314 12.8178 10.4045 12.6619 10.4045Z" fill="#13A518"/>
<path d="M13.8469 10.4045C13.6598 10.4045 13.5351 10.5314 13.5351 10.7217V13.0691C13.5351 13.2594 13.6598 13.3863 13.8469 13.3863C14.034 13.3863 14.1588 13.2594 14.1588 13.0691V10.7217C14.1588 10.5314 14.0028 10.4045 13.8469 10.4045Z" fill="#13A518"/>
<path d="M15.0319 10.4045C14.8449 10.4045 14.7201 10.5314 14.7201 10.7217V13.0691C14.7201 13.2594 14.8448 13.3863 15.0319 13.3863C15.219 13.3863 15.3438 13.2594 15.3438 13.0691V10.7217C15.3438 10.5314 15.2192 10.4045 15.0319 10.4045Z" fill="#13A518"/>
</svg>
