<svg width="20" height="20" viewBox="0 0 20 20" fill="none" xmlns="http://www.w3.org/2000/svg">
<path d="M8.8 13.294L13.6 10.1175C13.8946 9.92272 14.3125 9.97531 14.5333 10.2353C14.7542 10.4951 14.6946 10.8638 14.4 11.0588L9.06674 14.5882C8.7721 14.7832 8.35423 14.7304 8.13326 14.4706L6.13326 12.1176C5.9125 11.8576 5.9721 11.4889 6.26674 11.2941C6.56115 11.0991 6.97902 11.1517 7.2 11.4117L8.8 13.294ZM20 5.29425V18.2353C19.9993 18.7032 19.7886 19.1517 19.4136 19.4826C19.0386 19.8134 18.5303 19.9996 18 20H2C1.46965 19.9996 0.961371 19.8135 0.5864 19.4826C0.211428 19.1517 0.000685714 18.7032 0 18.2353V5.29425C0 5.28598 0.00491074 5.27928 0.00535714 5.27121C0.00825891 5.20996 0.0220983 5.14949 0.0464286 5.09198C0.0517857 5.07898 0.055134 5.06578 0.0616071 5.05318C0.0651786 5.04589 0.066294 5.03821 0.0703116 5.03092L2.36854 0.975165C2.53372 0.681504 2.78863 0.434498 3.10494 0.26216C3.42101 0.0896246 3.78551 -0.00117344 4.15717 1.14502e-05H15.8429C16.2145 -0.00117031 16.5791 0.0896246 16.8951 0.26216C17.2114 0.434498 17.4663 0.681677 17.6315 0.975363L19.9297 5.03112C19.9338 5.03821 19.9349 5.04609 19.9384 5.05337C19.9451 5.06598 19.9483 5.07917 19.9536 5.09217C19.978 5.14968 19.9918 5.20995 19.9947 5.27121C19.9951 5.27928 20 5.28598 20 5.29425ZM15.8429 1.17648H10.6667V4.70594H18.2547L16.4391 1.50164C16.3269 1.30193 16.0956 1.17589 15.8429 1.17648ZM1.74571 4.70594H9.33371V1.17648H4.1576C3.90492 1.17589 3.6739 1.30194 3.5616 1.50165L1.74571 4.70594ZM18.6669 5.88236H1.33314V18.2355C1.33359 18.5603 1.63181 18.8234 1.99989 18.8238H17.9999C18.368 18.8234 18.6662 18.5603 18.6666 18.2355L18.6669 5.88236Z" fill="#3E6B8C"/>
</svg>
