<svg width="20" height="20" viewBox="0 0 20 20" fill="none" xmlns="http://www.w3.org/2000/svg">
<path fill-rule="evenodd" clip-rule="evenodd" d="M16.9697 12.2268C18.7071 12.6371 20 14.1978 20 16.0607C20 18.2367 18.2366 20 16.0607 20C14.1978 20 12.6371 18.7073 12.2267 16.9697H0.906683C0.406395 16.9697 0 16.5618 0 16.06V0.909744C0 0.40639 0.406966 0 0.909755 0H16.0602C16.5631 0 16.9699 0.405283 16.9699 0.906672L16.9697 12.2268ZM6.36357 0.60621V5.26761L8.34922 4.27472C8.4346 4.23203 8.53491 4.23203 8.62029 4.27472L10.6059 5.26761V0.60621H6.36357ZM12.7272 16.0607C12.7272 17.902 14.2194 19.3941 16.0605 19.3941C17.9017 19.3941 19.3939 17.9018 19.3939 16.0607C19.3939 14.2195 17.9016 12.7275 16.0605 12.7275C14.2192 12.7275 12.7272 14.2197 12.7272 16.0607ZM5.7575 0.60621H0.909612C0.741365 0.60621 0.6059 0.741534 0.6059 0.909919V16.0602C0.6059 16.2277 0.741504 16.3639 0.906544 16.3639H12.1327C12.125 16.2634 12.1212 16.1623 12.1212 16.0607C12.1212 13.885 13.8846 12.1215 16.0605 12.1215C16.1621 12.1215 16.2633 12.1252 16.3637 12.1329V0.906915C16.3637 0.740624 16.2288 0.606275 16.06 0.606275H11.2121V5.75767C11.2121 5.98297 10.9751 6.12945 10.7736 6.02873L8.48484 4.88434L6.19618 6.02873C5.99473 6.12945 5.75757 5.98297 5.75757 5.75767L5.7575 0.60621ZM15.0629 15.8465L15.7577 16.5412L17.0586 15.2403C17.1769 15.122 17.3689 15.122 17.4872 15.2403C17.6055 15.3587 17.6055 15.5506 17.4872 15.6689L15.9719 17.1841C15.8536 17.3024 15.6618 17.3024 15.5434 17.1841L14.6343 16.2749C14.516 16.1566 14.516 15.9648 14.6343 15.8465C14.7526 15.728 14.9446 15.728 15.0629 15.8465Z" fill="#13A518"/>
</svg>
