<svg width="16" height="14" viewBox="0 0 16 14" fill="none" xmlns="http://www.w3.org/2000/svg">
<path d="M4.13305 9.40942L2.78373 8.2454L2.86161 10.1462L6.86599 13.4755L6.87566 8.07232L4.13305 9.40942Z" fill="#1B2E49" fill-opacity="0.6"/>
<path d="M9.09646 10.7656L7.22296 8.38187L7.21391 13.583L13.7506 10.8053L13.8419 8.68545L9.09646 10.7656Z" fill="#1B2E49" fill-opacity="0.6"/>
<path d="M2.43371 3.96211L7.05046 7.59926L4.18628 8.99595L0 5.38295L2.43371 3.96211Z" fill="#1B2E49" fill-opacity="0.6"/>
<path d="M14.1783 4.91643L7.05046 7.59948L9.20319 10.3384L15.6028 7.53509L14.1783 4.91643Z" fill="#1B2E49" fill-opacity="0.6"/>
<path d="M9.30757 2.44549V6.37809L13.3751 4.84663L9.30757 2.44549Z" fill="#1B2E49" fill-opacity="0.6"/>
<path d="M8.95964 2.32191L3.17052 4.10008L7.11141 7.20479L8.95948 6.50901L8.95964 2.32191Z" fill="#1B2E49" fill-opacity="0.6"/>
<path d="M2.43371 3.96211L1.08043 1.83598L7.60191 0L9.09557 1.91601L2.43371 3.96211Z" fill="#1B2E49" fill-opacity="0.6"/>
<path d="M14.1783 4.91643L9.09582 1.9162L10.9461 0.0325625L16 2.68757L14.1783 4.91643Z" fill="#1B2E49" fill-opacity="0.6"/>
</svg>
