<svg width="7" height="12" viewBox="0 0 7 12" fill="none" xmlns="http://www.w3.org/2000/svg">
<path opacity="0.6" d="M3.49991 4.8001C3.19044 4.8001 2.89376 4.67367 2.67491 4.44867C2.45616 4.22358 2.33324 3.91842 2.33324 3.60011C2.33324 3.28181 2.45616 2.97664 2.67491 2.75155C2.89375 2.52655 3.19044 2.40013 3.49991 2.40013C3.80938 2.40013 4.10607 2.52655 4.32491 2.75155C4.54366 2.97664 4.66658 3.28181 4.66658 3.60011C4.66658 3.91842 4.54366 4.22358 4.32491 4.44867C4.10607 4.67367 3.80938 4.8001 3.49991 4.8001ZM3.49991 3.20012C3.39679 3.20012 3.29783 3.24226 3.22491 3.31726C3.152 3.39226 3.11102 3.49404 3.11102 3.60011C3.11102 3.70618 3.152 3.80797 3.22491 3.88296C3.29783 3.95796 3.39679 4.00011 3.49991 4.00011C3.60304 4.00011 3.702 3.95796 3.77491 3.88296C3.84783 3.80797 3.8888 3.70618 3.8888 3.60011C3.8888 3.49404 3.84783 3.39226 3.77491 3.31726C3.702 3.24226 3.60304 3.20012 3.49991 3.20012ZM3.49991 9.60003C3.39653 9.60066 3.29722 9.55887 3.22378 9.48405C3.11102 9.34807 0 6.13598 0 3.60002C0 2.31386 0.667111 1.1253 1.75 0.482342C2.83289 -0.160781 4.16711 -0.160781 5.25 0.482342C6.33289 1.12537 7 2.31384 7 3.60002C7 6.13598 3.88889 9.34805 3.77622 9.48405C3.70278 9.55887 3.60348 9.60066 3.50009 9.60003H3.49991ZM3.49991 0.800148C2.77796 0.800148 2.08551 1.09514 1.575 1.62023C1.06449 2.14532 0.777689 2.85754 0.777689 3.60011C0.777689 5.40411 2.75711 7.78817 3.49991 8.61993C4.24271 7.7919 6.22213 5.41997 6.22213 3.60011C6.22213 2.85754 5.93533 2.14532 5.42482 1.62023C4.91431 1.09514 4.22187 0.800148 3.49991 0.800148ZM3.49991 12C2.5316 12 1.55547 11.692 1.55547 11C1.55547 10.3081 2.5316 10 3.49991 10C4.46822 10 5.44436 10.3081 5.44436 11C5.44436 11.692 4.46822 12 3.49991 12ZM2.42264 11C2.76371 11.1451 3.13107 11.2133 3.49991 11.2C3.86876 11.2133 4.23611 11.1451 4.57718 11C4.23611 10.8549 3.86876 10.7867 3.49991 10.8C3.13107 10.7867 2.76371 10.8549 2.42264 11Z" fill="#3E6B8C"/>
</svg>
