<svg width="12" height="12" viewBox="0 0 12 12" fill="none" xmlns="http://www.w3.org/2000/svg">
<path d="M6.45 3C6.45 2.75147 6.24852 2.55 6 2.55C5.75148 2.55 5.55 2.75148 5.55 3V6.01714C5.55 6.43834 5.71113 6.84373 6.00043 7.15001L7.47281 8.70911C7.64348 8.88974 7.92834 8.89786 8.10904 8.72727C8.28968 8.5566 8.2978 8.27174 8.12721 8.09104L6.65474 6.53211C6.52324 6.39282 6.45 6.20858 6.45 6.01716L6.45 3Z" fill="#3E6B8C"/>
<path fill-rule="evenodd" clip-rule="evenodd" d="M12 6C12 9.31371 9.31371 12 6 12C2.68629 12 0 9.31371 0 6C0 2.68629 2.68629 0 6 0C9.31371 0 12 2.68629 12 6ZM11.1 6C11.1 8.81657 8.81657 11.1 6 11.1C3.18321 11.1 0.9 8.81657 0.9 6C0.9 3.18321 3.18321 0.9 6 0.9C8.81657 0.9 11.1 3.18321 11.1 6Z" fill="#3E6B8C"/>
</svg>
