<svg width="26" height="26" viewBox="0 0 26 26" fill="none" xmlns="http://www.w3.org/2000/svg">
<path d="M4.02222 4.49091L3.67193 4.13413L4.02222 4.49091ZM5.26667 5.71273L5.56314 6.11535L5.59168 6.09434L5.61696 6.06951L5.26667 5.71273ZM20.0222 5.71273L19.6719 6.06951L20.0222 5.71273ZM20.0222 20.2873L19.6718 19.9304L19.6641 19.9384L20.0222 20.2873ZM5.26667 20.2873L5.61696 19.9305L5.26667 20.2873ZM4.02222 21.5091L3.67186 21.8659L3.67872 21.8724L4.02222 21.5091ZM14.7778 13.8291L15.1281 14.1859L16.0007 13.3291H14.7778V13.8291ZM10.6889 17.8436L10.3386 17.4869L10.6889 17.8436ZM11.9333 19.0655L11.583 18.7087L11.9333 19.0655ZM17.4444 13.6545L17.7947 14.0113L17.4444 13.6545ZM17.5333 12.52L17.183 12.8768L17.5333 12.52ZM11.9333 7.02182L12.2836 6.66504L11.9333 7.02182ZM10.6889 8.24364L10.3386 8.60042L10.6889 8.24364ZM14.6 12.0836V12.5836H15.8229L14.9503 11.7269L14.6 12.0836ZM0.646447 23.9393C0.451184 24.1346 0.451184 24.4512 0.646447 24.6464C0.841709 24.8417 1.15829 24.8417 1.35355 24.6464L0.646447 23.9393ZM23.6464 2.35355C23.8417 2.15829 23.8417 1.84171 23.6464 1.64645C23.4512 1.45118 23.1346 1.45118 22.9393 1.64645L23.6464 2.35355ZM21.788 4.12759C19.2968 1.77233 16.1523 0.5 12.7333 0.5V1.5C15.8921 1.5 18.7921 2.67131 21.1009 4.85423L21.788 4.12759ZM12.7333 0.5C9.31982 0.5 6.081 1.76886 3.67193 4.13413L4.37252 4.84769C6.58567 2.67478 9.56907 1.5 12.7333 1.5V0.5ZM3.67193 4.13413C3.39092 4.41002 3.25556 4.78209 3.25556 5.13455C3.25556 5.48492 3.39244 5.86991 3.72575 6.11535L4.3187 5.31011C4.29645 5.29373 4.25556 5.24236 4.25556 5.13455C4.25556 5.02882 4.29797 4.92089 4.37252 4.84769L3.67193 4.13413ZM3.72575 6.11535C4.25763 6.50701 5.03126 6.50701 5.56314 6.11535L4.97019 5.31011C4.79096 5.44209 4.49793 5.44209 4.3187 5.31011L3.72575 6.11535ZM5.61696 6.06951C7.56931 4.15266 10.0219 3.15818 12.6444 3.15818V2.15818C9.75593 2.15818 7.05291 3.25825 4.91637 5.35595L5.61696 6.06951ZM12.6444 3.15818C15.264 3.15818 17.8062 4.23773 19.6719 6.06951L20.3725 5.35595C18.3271 3.34772 15.536 2.15818 12.6444 2.15818V3.15818ZM19.6719 6.06951C23.5612 9.88808 23.5612 16.1119 19.6719 19.9305L20.3725 20.6441C24.661 16.4335 24.661 9.56647 20.3725 5.35595L19.6719 6.06951ZM19.6641 19.9384C17.8084 21.8431 15.2736 22.8418 12.6444 22.8418V23.8418C15.5264 23.8418 18.3249 22.746 20.3804 20.6362L19.6641 19.9384ZM12.6444 22.8418C10.0249 22.8418 7.48266 21.7623 5.61696 19.9305L4.91637 20.6441C6.96178 22.6523 9.75286 23.8418 12.6444 23.8418V22.8418ZM5.61696 19.9305C5.06691 19.3904 4.22198 19.3904 3.67193 19.9305L4.37252 20.6441C4.53358 20.4859 4.75531 20.4859 4.91637 20.6441L5.61696 19.9305ZM3.67193 19.9305C3.11677 20.4756 3.11677 21.3208 3.67193 21.8659L4.37252 21.1523C4.21657 20.9992 4.21657 20.7972 4.37252 20.6441L3.67193 19.9305ZM3.67872 21.8724C6.16985 24.2277 9.31437 25.5 12.7333 25.5V24.5C9.57452 24.5 6.67459 23.3287 4.36573 21.1458L3.67872 21.8724ZM12.7333 25.5C16.1282 25.5 19.3781 24.4172 21.8014 21.9465L21.0875 21.2463C18.8885 23.4883 15.9162 24.5 12.7333 24.5V25.5ZM21.8014 21.9465C24.2007 19.5002 25.5 16.4086 25.5 13.0436H24.5C24.5 16.1368 23.3104 18.9798 21.0875 21.2463L21.8014 21.9465ZM25.5 13.0436C25.5 9.6928 24.2987 6.50141 21.788 4.12759L21.1009 4.85423C23.3902 7.01859 24.5 9.93629 24.5 13.0436H25.5ZM5.67778 12.9564C5.67778 12.5781 5.54693 12.2254 5.28363 11.9669C5.02114 11.7091 4.66646 11.5836 4.28889 11.5836V12.5836C4.44466 12.5836 4.53441 12.6327 4.58304 12.6804C4.63085 12.7274 4.67778 12.811 4.67778 12.9564H5.67778ZM4.28889 11.5836H1.88889V12.5836H4.28889V11.5836ZM1.88889 11.5836C1.51132 11.5836 1.15663 11.7091 0.894149 11.9669C0.630846 12.2254 0.5 12.5781 0.5 12.9564H1.5C1.5 12.811 1.54693 12.7274 1.59474 12.6804C1.64337 12.6327 1.73312 12.5836 1.88889 12.5836V11.5836ZM0.5 12.9564C0.5 13.3346 0.630846 13.6874 0.894149 13.9459C1.15663 14.2036 1.51132 14.3291 1.88889 14.3291V13.3291C1.73312 13.3291 1.64337 13.2801 1.59474 13.2323C1.54693 13.1854 1.5 13.1018 1.5 12.9564H0.5ZM1.88889 14.3291H4.28889V13.3291H1.88889V14.3291ZM4.28889 14.3291C4.66646 14.3291 5.02114 14.2036 5.28363 13.9459C5.54693 13.6874 5.67778 13.3346 5.67778 12.9564H4.67778C4.67778 13.1018 4.63085 13.1854 4.58304 13.2323C4.53441 13.2801 4.44466 13.3291 4.28889 13.3291V14.3291ZM6.18889 12.9564C6.18889 13.3346 6.31974 13.6874 6.58304 13.9459C6.84552 14.2036 7.20021 14.3291 7.57778 14.3291V13.3291C7.42201 13.3291 7.33226 13.2801 7.28363 13.2323C7.23582 13.1854 7.18889 13.1018 7.18889 12.9564H6.18889ZM7.57778 14.3291H14.7778V13.3291H7.57778V14.3291ZM14.4275 13.4723L10.3386 17.4869L11.0392 18.2004L15.1281 14.1859L14.4275 13.4723ZM10.3386 17.4869C9.78343 18.0319 9.78343 18.8772 10.3386 19.4222L11.0392 18.7087C10.8832 18.5556 10.8832 18.3535 11.0392 18.2004L10.3386 17.4869ZM10.3386 19.4222C10.5975 19.6765 10.8971 19.8273 11.3111 19.8273V18.8273C11.1918 18.8273 11.1358 18.8035 11.0392 18.7087L10.3386 19.4222ZM11.3111 19.8273C11.7251 19.8273 12.0247 19.6765 12.2836 19.4222L11.583 18.7087C11.4864 18.8035 11.4304 18.8273 11.3111 18.8273V19.8273ZM12.2836 19.4222L17.7947 14.0113L17.0942 13.2978L11.583 18.7087L12.2836 19.4222ZM17.7947 14.0113C17.9133 13.8949 18.0229 13.7583 18.0999 13.588C18.1781 13.4153 18.2111 13.2341 18.2111 13.0436H17.2111C17.2111 13.115 17.1996 13.152 17.1889 13.1756C17.1771 13.2017 17.1534 13.2396 17.0942 13.2978L17.7947 14.0113ZM18.2111 13.0436C18.2111 12.672 18.0844 12.3603 17.8836 12.1632L17.183 12.8768C17.1601 12.8542 17.2111 12.8917 17.2111 13.0436H18.2111ZM17.8836 12.1632L12.2836 6.66504L11.583 7.3786L17.183 12.8768L17.8836 12.1632ZM12.2836 6.66504C11.7336 6.12499 10.8886 6.12499 10.3386 6.66504L11.0392 7.3786C11.2002 7.22047 11.422 7.22047 11.583 7.3786L12.2836 6.66504ZM10.3386 6.66504C9.78343 7.2101 9.78343 8.05535 10.3386 8.60042L11.0392 7.88685C10.8832 7.73374 10.8832 7.53171 11.0392 7.3786L10.3386 6.66504ZM10.3386 8.60042L14.2497 12.4404L14.9503 11.7269L11.0392 7.88685L10.3386 8.60042ZM14.6 11.5836H7.57778V12.5836H14.6V11.5836ZM7.57778 11.5836C7.20021 11.5836 6.84552 11.7091 6.58304 11.9669C6.31974 12.2254 6.18889 12.5781 6.18889 12.9564H7.18889C7.18889 12.811 7.23582 12.7274 7.28363 12.6804C7.33226 12.6327 7.42201 12.5836 7.57778 12.5836V11.5836ZM1.35355 24.6464L23.6464 2.35355L22.9393 1.64645L0.646447 23.9393L1.35355 24.6464Z" fill="#3E6B8C"/>
</svg>
