<svg width="12" height="12" viewBox="0 0 12 12" fill="none" xmlns="http://www.w3.org/2000/svg">
<path d="M11.3436 0.726913C10.9903 0.726913 10.7 1.0202 10.7 1.37727V2.29544L10.1952 1.78539C9.07192 0.637623 7.57018 0 5.98 0C4.38978 0 2.87537 0.637624 1.75215 1.77259C0.540536 2.99688 -0.0904871 4.69291 0.0104991 6.41449C0.0357648 6.75874 0.313413 7.02659 0.641522 7.02659H0.679377C1.03275 7.00106 1.2978 6.69505 1.27254 6.338C1.19683 4.97344 1.7017 3.64723 2.64824 2.69079C4.47818 0.828979 7.46925 0.828979 9.29922 2.69079L9.80399 3.20085L8.89541 3.20094C8.54204 3.20094 8.26439 3.48149 8.26439 3.83856C8.26439 4.19563 8.55464 4.48891 8.90801 4.48891H11.3564C11.7098 4.48891 12 4.19563 12 3.83856V1.36458C11.9874 1.00751 11.6972 0.726957 11.3438 0.726957L11.3436 0.726913Z" fill="#3E6B8C"/>
<path d="M8.08755 5.98093L6.58569 5.5601V3.32842C6.58569 2.97135 6.29545 2.67806 5.94207 2.67806C5.5887 2.67806 5.29845 2.97135 5.29845 3.32842V6.04469C5.29845 6.33798 5.48772 6.593 5.76539 6.66959L7.73416 7.23072C7.79728 7.24344 7.84772 7.25625 7.91084 7.25625C8.18849 7.25625 8.4409 7.065 8.52926 6.78443C8.63015 6.42727 8.4282 6.07022 8.0875 5.98091L8.08755 5.98093Z" fill="#3E6B8C"/>
<path d="M4.4781 10.6101C4.17518 10.508 3.88494 10.3806 3.60726 10.2148C3.32961 10.049 2.97624 10.151 2.82482 10.4316C2.66072 10.7121 2.7617 11.0692 3.03935 11.2222C3.38013 11.4262 3.74608 11.592 4.12471 11.7068C4.18783 11.7323 4.25095 11.7323 4.3014 11.7323C4.54121 11.7323 4.76833 11.5793 4.84403 11.337C4.93242 11.0437 4.78093 10.7121 4.4781 10.6101Z" fill="#3E6B8C"/>
<path d="M1.71422 8.19986C1.57539 7.90658 1.22202 7.80456 0.944368 7.94483C0.666718 8.08511 0.540469 8.44218 0.691982 8.72273C0.868664 9.0798 1.08319 9.42414 1.323 9.73013C1.43657 9.87042 1.60066 9.94691 1.77734 9.94691C1.90358 9.94691 2.02973 9.90866 2.13071 9.81935C2.3831 9.61529 2.42096 9.25822 2.23169 9.00319C2.02974 8.76097 1.86564 8.49314 1.71422 8.19986Z" fill="#3E6B8C"/>
<path d="M9.55152 9.23281C9.4884 9.30931 9.4127 9.38581 9.34958 9.44959C9.18548 9.6154 9.02147 9.75567 8.8448 9.89597C8.59242 10.0872 8.54189 10.4571 8.73124 10.7121C8.8448 10.8651 9.02149 10.9416 9.18558 10.9416C9.31182 10.9416 9.42539 10.9034 9.52635 10.8269C9.74089 10.6611 9.94283 10.4825 10.1448 10.2786C10.2332 10.1893 10.3215 10.1 10.3972 10.0107C10.6117 9.7684 10.5864 9.39862 10.3467 9.19456C10.1194 8.96506 9.75338 8.9905 9.55152 9.23281Z" fill="#3E6B8C"/>
<path d="M7.21674 10.6866C6.91383 10.7759 6.58572 10.8269 6.2702 10.8396C5.95469 10.8651 5.71488 11.1329 5.72757 11.4517C5.74016 11.7578 6.00522 12 6.29547 12H6.33332C6.72453 11.9745 7.12843 11.9107 7.50698 11.8087C7.80989 11.7194 7.99918 11.4006 7.91088 11.0946C7.82249 10.7886 7.51968 10.6101 7.21674 10.6866Z" fill="#3E6B8C"/>
</svg>
