<svg enable-background="new 0 0 595.3 841.9" viewBox="0 0 595.3 841.9" xmlns="http://www.w3.org/2000/svg" xmlns:xlink="http://www.w3.org/1999/xlink"><linearGradient id="a" gradientUnits="userSpaceOnUse" x1="75.6921" x2="495.6204" y1="319.6028" y2="319.6028"><stop offset="0" stop-color="#e45419"/><stop offset=".3248" stop-color="#d83b1b"/><stop offset=".7499" stop-color="#cc201e"/><stop offset="1" stop-color="#c7161f"/></linearGradient><linearGradient id="b" gradientUnits="userSpaceOnUse" x1="97.3896" x2="303.4571" y1="342.265" y2="342.265"><stop offset="0" stop-color="#f04600"/><stop offset=".2314" stop-color="#f16001"/><stop offset=".5287" stop-color="#f17a01"/><stop offset=".7945" stop-color="#f28a02"/><stop offset="1" stop-color="#f29002"/></linearGradient><path d="m147.1 407.2c1.8-1 2.9.3 4 1.1 23.3 16 49.5 22.2 77.4 21.8 32.2-.4 56.7-15.1 73.8-42 11.2-17.7 14.9-37.3 12.3-58.1-1.6-12.6-5.5-24.3-12.2-34.9-10.8-17.3-26.2-28.9-45.2-36-7.9-2.9-16-5-24.4-4.9-10.3.1-20.4 1.6-30.4 4.3-19.8 5.4-35.7 16.7-47.9 33.1-6.2 8.4-12.1 16.9-18.2 25.4-4.5 6.2-9.3 12-15.7 16.5-7.6 5.3-16 7.9-25.2 7.9-6.2 0-12.3-.7-18.3-2.1-.6-.1-1.1-.2-1.3-1.3 1.6-.9 3.7-1 5.5-1.4 7.5-1.6 14.5-4.2 21.1-8.5s11.5-9.9 15.7-16.4c5.6-8.8 9.6-18.4 15-27.3 5.3-8.7 11.1-16.9 18.8-23.7 9-8 19.2-13.8 30.2-18.5 14.1-6 29-9.2 43.7-13 44.5-11.3 89-22.7 133.5-34 18.4-4.7 36.9-9.3 55.3-14 10.4-2.6 20.6-2.4 30.5 2.1 3.1 1.4 5.9 3.2 8.6 5.2 10.7 7.7 21.3 15.6 31.9 23.4 7.9 5.7 11.1 13.6 9.7 23-1.3 9.1-6.8 15-15.3 18.2-3 1.1-6.1 2.1-9.1 3.3-3.2 1.2-3.2 1.2-2.3 4.3 5.9 21.6 11.8 43.2 17.7 64.8 2.3 8.3 4.6 16.7 6.9 25 1.3 4.7 1.9 9.5 1.4 14.4-1.1 10.7-6 19.3-14.8 25.4-7.8 5.4-16.1 10.3-24.2 15.2-14.2 8.6-28 17.7-43 24.9-19.6 9.4-40 16.7-61.3 21.4-31.1 6.9-62.6 9.1-94.4 7-18.5-1.2-36.7-4.5-54.1-10.9-18.1-6.6-34.4-16.4-47.5-30.7-2.9-3.2-6.3-6-8.2-10zm330.6-47.4c-.2-4.8-.8-8.7-1.8-12.6-6.3-24.1-12.5-48.2-18.8-72.3-2.5-9.7-6.2-11.5-15.6-8.1-25.3 9.2-50.7 18.2-76.1 27.3-5.5 2-7.4 1.4-11.2-2.8-4.9-5.5-9.7-11-14.5-16.5-2.7-3.1-4.2-3.7-6.2-2.6-1.8 1.1-2 3.1-.7 6.7 13.6 36.2 27.2 72.3 40.8 108.5 2.1 5.6 3.8 11.4 6.6 16.7 3.9 7.4 10.1 11.7 18.4 12.7 6.7.8 12.7-1.2 18.4-4.7 15-9.2 30-18.4 44.9-27.6 2.1-1.3 4.2-2.7 6.1-4.4 6.3-5.5 9.2-12.7 9.7-20.3zm-110.4-83.1c2.1.3 4.1-.4 6-1.1 2.6-.9 5.2-1.9 7.9-2.8 23.5-8.7 47-17.4 70.4-26.1 8.2-3.1 16.5-6.1 24.7-9.2 4.7-1.8 6.5-5.8 4.8-9.7-.8-1.8-2.1-3.2-3.6-4.3-10.8-8-21.6-16.2-32.5-24.1-7.6-5.6-16.1-7.3-25.4-4.9-19 4.9-38 9.7-57 14.6-12.5 3.2-25 6.4-37.4 9.5-.9.2-1.7.4-2.5.7-4.9 1.7-6.6 6.2-3.5 10.4 2.1 3 4.7 5.6 7.2 8.3 9.9 11.2 19.8 22.4 29.8 33.5 2.9 3.3 6.7 4.9 11.1 5.2z" fill="url(#a)"/><path d="m190.2 364.8c-1.3-.6-2.2.4-3.2.8-13.5 5.9-27.6 8.7-42.4 7.7-15-1-28.5-6.3-40.8-14.7-1.9-1.3-3.9-2.6-5.7-4.1-1-.8-1-1.8.5-2.2.8-.2 1.7-.2 2.6-.3 13.6-1.4 24.7-7.7 34.3-17.2 7-6.9 12.5-15.1 18.1-23.2 6.2-8.7 12.3-17.5 20.2-24.8 10.2-9.4 22.2-15.1 35.6-18.2 6.9-1.6 13.8-2.8 20.9-2.7 20.5.4 38 8.2 52.1 22.9 18.1 18.8 23.9 41.4 19.8 66.9-5.3 33.4-35.7 62.2-73.4 62.6-25.6.3-49.7-5.6-71.6-19.4-.5-.3-1-.6-1.5-.9-2.2-1.6-2.1-2.6.4-3.6 4.4-1.7 8.8-3.3 12.7-6 8.3-5.7 15.3-12.7 20.7-21.3.4-.5 1.1-1.2.7-2.3z" fill="url(#b)"/><g fill="#d02e1f"><path d="m343.6 523.3c.8-3 1.6-5.5 2.2-8.5 2.3-11.8 4.4-23.6 6.7-35.4.8-4.2 1.8-5.1 6.1-5.3 3.7-.2 7.3-.1 10.9.6 7.5 1.4 10.8 4.9 11.6 12.7 1.2 12.1 2.4 24.2 3.6 36.3.1.7-.1 1.7.8 1.8.8.1 1-1.6 1.2-2.5 2.5-14.1 4.9-28.3 7-42.5.9-5.9 1.7-6.6 7.7-6.4 3.2.1 6.4.4 9.5 1.4 5.8 1.8 7.6 4.7 6 10.6-1.2 4.7-2.7 9.3-4.3 13.8-4.7 13.3-10.4 26.1-15.5 39.2-1.5 3.8-3.2 5.4-7.8 5.3-2 0-4.1 0-6.1-.1-7.5-.2-11.2-3.3-12.6-10.8-1.4-7.6-2.2-15.4-3.1-23.1-.5-4.2-.9-8.4-1.4-12.7-.1-1 0-2.1-1.6-2.7-1.2 6.8-2.4 13.6-3.7 20.4-1.3 7.1-2.6 14.1-3.9 21.2-.3 1.6-.8 3.1-1.2 4.7-.6 2.1-2.1 3.1-4.2 3.1-3.7 0-7.3.1-11-.1-6.3-.4-10.6-4.1-12.4-10.6-3-11.2-5.8-22.4-8.6-33.6-1.7-6.5-3.2-13.1-4.8-19.6-1.3-5.3-.2-6.5 5.4-6.6 4 0 7.9.4 11.7 1.3 5.1 1.2 7.7 4.7 8.1 9.7.6 7.6 1.1 15.2 1.6 22.8.4 5.3.7 10.2 1 15.5-.1 1 .9 1 1.1.1z"/><path d="m489.9 503.7c-.2 7.2-1.2 14.3-4.1 21-5 11.3-13.5 18.2-25.7 20.2-7.9 1.3-15.8 1.1-23.3-2-6-2.5-10.4-6.8-12.4-12.9-4.5-13.8-3.8-27.5 3.2-40.4 4.2-7.7 11-12.4 19.4-14.7 7.7-2.1 15.6-2.3 23.5-.6 9.5 2.1 15.5 7.8 18.1 17.2.9 4 1.4 8 1.3 12.2zm-46.4 8.3c-.1 3.5.1 7 1.4 10.4 2.2 5.7 7.7 7.8 13.3 5.3 2.5-1.1 4.3-3.1 5.6-5.4 3.9-7.3 5.2-15.2 3.9-23.4-.6-3.9-2.4-7.4-6.8-8.3-4.5-1-8.7-.4-12.1 3.3-1.6 1.8-2.7 3.8-3.5 6-1.3 3.9-1.7 8-1.8 12.1z"/><path d="m219.8 535.1c-4 5.6-8.8 9-15 10.1-11.7 2-25.8-4-24.8-21.3.8-14.9 2-29.8 3.1-44.7.3-4.3 1.2-5 5.4-5.1 2.9 0 5.9-.1 8.7.8 3.7 1.1 6.1 3.4 6.6 7.3.2 1.7.4 3.5.2 5.3-.8 8.5-1.5 16.9-2.2 25.4-.2 2.5-.4 5-.3 7.5.2 4.2 2.3 7.1 5.7 8 3.7 1 7-.3 9.4-4 2.3-3.5 3.3-7.5 4.2-11.5 1.8-8.2 2.1-16.6 2.7-24.9.2-3.4.5-6.7.8-10.1.2-2.2 1-3.7 3.4-3.7 3.4-.1 6.7-.2 10 .8 3.8 1.1 6 3.6 6.7 7.3.4 2 .5 4.1.3 6.1-1.2 17.4-2.5 34.8-3.8 52.2-.3 4-.4 4-4.5 4.1-1.3 0-2.6 0-4 0-5.9-.2-10.7-2.3-12.6-9.6z"/><path d="m132 525.4c.8-9.3 1.6-18.7 2.3-28 .1-1.3.2-2.6.3-3.9.2-1.4-.3-2.3-1.9-2.2-.1 0-.3 0-.4 0-5.8-.5-5.8-.5-5.4-6.3.1-1.2.2-2.3.4-3.5.4-4 2.6-6.6 6.6-7.1 2.2-.3 2.9-1.3 3.6-3.1 1.3-3.6 2.7-7.1 4-10.7 1.2-3.1 2.7-5.2 6.7-4.9s7.2 1.3 8.8 5.2c1.4 3.2 1.2 6.6 1.1 10-.1 3.3-.1 3.3 3.3 3.3 2.8 0 5.6-.1 8.4 0 3.1.1 3.5.5 3.3 3.7-.1 1.9-.3 3.8-.5 5.7-.7 5.2-3.1 7.4-8.5 7.6-1.8.1-3.5.1-5.3 0s-2.7.7-2.8 2.5c-.2 3.5-.6 7-.8 10.5-.4 5.1-.9 10.2-1.2 15.3-.1 1.6-.1 3.2.1 4.8.4 3 2 4 5 3.1 1.2-.4 2.4-1.2 3.6-1.7 2.2-.9 3.3-.5 4.1 1.6 2.4 6.6-1.7 15.1-8.5 17.2-4.9 1.5-9.8 1.5-14.8.4-6.4-1.5-10.1-5.6-11.2-12-.4-2.5-.5-5-.3-7.5z"/><path d="m281 482.9c3.7-4.7 7.9-8.2 13.7-9.4 8.6-1.7 16.1 3.6 16.9 12.3.6 6.3-.8 12-5.9 16.2-3.1 2.6-6.8 3.4-10.7 2.9-3.2-.4-3.7-1-3.6-4.2.1-2 .3-4.1-.1-6.1-.7-3.6-3.5-4.6-6.5-2.5-1.5 1.1-2.3 2.6-3 4.2-2 4.5-2.4 9.3-2.8 14.1-.7 9.9-1.5 19.9-2.3 29.8-.4 4.1-.6 4.3-4.9 4.3-2.8 0-5.6.2-8.3-.6-3.9-1.1-6.3-3.4-7-7.5-.4-2.5-.4-5-.3-7.4 1.2-16.5 2.4-33 3.6-49.5.4-5 .9-5.4 5.9-5.4h1.8c7.4.1 10.1 1.8 13.5 8.8z"/></g><path d="m207.4 559.9c2.4 0 4.6.4 6.5 1.1s3.5 1.8 4.8 3.1 2.3 2.9 3 4.8 1 3.9 1 6.2c0 2.3-.3 4.3-1 6.2s-1.7 3.5-3 4.8-2.9 2.4-4.8 3.1-4.1 1.1-6.5 1.1h-12v-30.5h12zm-5.4 24.4h5.4c1.4 0 2.7-.2 3.8-.7 1.1-.4 2-1.1 2.8-1.9s1.3-1.7 1.7-2.9c.4-1.1.6-2.4.6-3.7 0-1.4-.2-2.6-.6-3.8-.4-1.1-1-2.1-1.7-2.9s-1.7-1.4-2.8-1.9c-1.1-.4-2.3-.7-3.8-.7h-5.4z"/><path d="m252.2 559.9v6.1h-14.3v6.2h12.6v6.1h-12.6v6.1h14.3v6.1h-20.8v-30.5h20.8z"/><path d="m268.1 559.9v24.3h15.6v6.3h-22.1v-30.5h6.5z"/><path d="m291.8 590.4v-30.5h6.5v30.5z"/><path d="m306.2 559.9h6.8l8.3 22.6 8.3-22.6h6.8l-11.7 30.5h-7z"/><path d="m365.3 559.9v6.1h-14.3v6.2h12.6v6.1h-12.6v6.1h14.3v6.1h-20.8v-30.5h20.8z"/><path d="m392.8 590.4-6.2-9.9h-5.5v9.9h-6.5v-30.5h12.5c3.9 0 7 .9 9 2.8s3.1 4.4 3.1 7.7c0 2.4-.5 4.3-1.6 5.9s-2.7 2.7-4.8 3.5l7.2 10.7h-7.2zm-11.7-24.6v9.2h6c1.8 0 3.1-.3 4.1-1s1.5-1.9 1.5-3.6c0-1.6-.5-2.8-1.5-3.5s-2.4-1.1-4.1-1.1z"/><path d="m419.6 573.5 8-13.6h7.1l-11.9 19.5v11.1h-6.5v-11.1l-11.9-19.5h7.1z"/></svg>