<svg width="12" height="10" viewBox="0 0 12 10" fill="none" xmlns="http://www.w3.org/2000/svg">
<path d="M0.176084 4.23925L3.17608 7.18064C3.28828 7.29123 3.44124 7.35298 3.60026 7.35298H3.60749C3.7695 7.35121 3.92307 7.28532 4.03467 7.17L10.0344 0.993269C10.263 0.758588 10.2534 0.386235 10.0134 0.161502C9.77406 -0.06146 9.39308 -0.0525956 9.16508 0.182085L3.58935 5.92241L1.02432 3.4076C0.789683 3.17755 0.410511 3.17755 0.175977 3.4076C-0.0586591 3.63765 -0.0585521 4.0093 0.176084 4.23925Z" fill="#13A518"/>
<path d="M10.9657 2.8297L4.966 9.00643C4.7374 9.24111 4.74704 9.61346 4.987 9.83819C5.10281 9.94593 5.25156 10 5.40042 10C5.55882 10 5.71721 9.93884 5.83485 9.81702L11.8346 3.64029C12.0632 3.40561 12.0536 3.03326 11.8136 2.80852C11.5747 2.58556 11.1944 2.59502 10.9657 2.8297Z" fill="#13A518"/>
</svg>
