<svg width="24" height="24" viewBox="0 0 24 24" fill="none" xmlns="http://www.w3.org/2000/svg">
<path d="M9.91737 16.843C10.0812 17.0346 10.3209 17.1444 10.5731 17.143C10.8308 17.136 11.0717 17.0131 11.2288 16.8088L17.8244 8.2373C18.0111 7.99451 18.0542 7.6706 17.9375 7.38759C17.8208 7.10443 17.5617 6.90506 17.2583 6.86468C16.9546 6.82431 16.6525 6.94887 16.4658 7.19147L10.5172 14.9058L7.46566 11.3186C7.33058 11.1112 7.11266 10.9721 6.86756 10.9375C6.62247 10.9027 6.37434 10.9756 6.18699 11.1372C5.99949 11.2991 5.89138 11.5339 5.88985 11.7814C5.88851 12.0288 5.99432 12.2649 6.17991 12.4287L9.91737 16.843Z" fill="#13A518"/>
<path d="M12 24C15.1826 24 18.2347 22.7357 20.4853 20.4853C22.7357 18.2347 24 15.1822 24 12C24 8.81777 22.7357 5.76534 20.4853 3.51471C18.2347 1.26432 15.1822 0 12 0C8.81777 0 5.76534 1.26427 3.51471 3.51471C1.26432 5.76529 0 8.81777 0 12C0 15.1822 1.26427 18.2347 3.51471 20.4853C5.76529 22.7357 8.81777 24 12 24ZM12 1.7141C14.7279 1.7141 17.3442 2.79779 19.273 4.72677C21.202 6.65574 22.2857 9.27196 22.2857 11.9998C22.2857 14.7276 21.202 17.344 19.273 19.2728C17.3441 21.2018 14.7278 22.2855 12 22.2855C9.27216 22.2855 6.65579 21.2018 4.72696 19.2728C2.79798 17.3439 1.7143 14.7276 1.7143 11.9998C1.7143 9.27196 2.79798 6.6556 4.72696 4.72677C6.65594 2.79779 9.27216 1.7141 12 1.7141Z" fill="#13A518"/>
</svg>
