<svg width="20" height="20" viewBox="0 0 20 20" fill="none" xmlns="http://www.w3.org/2000/svg">
<path d="M9.99839 0C4.47678 0 0 4.47571 0 10C0 15.5225 4.47678 20 9.99839 20C15.5218 20 20 15.5225 20 10C20 4.47571 15.5218 0 9.99839 0ZM9.99839 1.5975C12.8751 1.5975 15.41 3.04268 16.9251 5.24857C15.9207 6.28875 14.7405 7.06204 13.3786 7.5725C12.9375 7.73838 12.4536 7.73656 12.0077 7.58199C11.4088 7.37593 10.7262 7.25805 9.9985 7.25805C9.27248 7.25805 8.59137 7.37593 7.99254 7.58199C7.54661 7.73656 7.0644 7.73838 6.62165 7.5725C5.25969 7.06204 4.07799 6.28707 3.07508 5.24857C4.58991 3.04279 7.12336 1.5975 9.99861 1.5975H9.99839ZM1.84863 8C3.05922 8.38004 4.24543 8.86689 5.41099 9.44964C5.6138 9.55106 5.7286 9.76507 5.7286 9.99371V9.99692C5.7286 10.567 6.00074 11.0951 6.46437 11.5315C7.49463 12.5072 8.02719 13.8947 7.95156 15.3083C7.90483 16.2067 7.73815 17.1049 7.45164 18.0034C4.05976 16.923 1.60044 13.7484 1.60044 9.99692C1.60044 9.30774 1.69264 8.64089 1.84886 8.00014L1.84863 8ZM18.151 8C18.3071 8.64089 18.3994 9.30943 18.3994 9.99679C18.3994 13.7482 15.94 16.9229 12.5482 18.0032C12.2633 17.1048 12.0966 16.2066 12.0483 15.3083C11.9742 13.8947 12.5053 12.5073 13.5355 11.5315C13.9991 11.0951 14.2713 10.5653 14.2713 9.99693V9.99372C14.2713 9.76353 14.3844 9.55272 14.5889 9.44965C15.7543 8.86679 16.9391 8.3799 18.1512 8.00001L18.151 8ZM9.96661 8.88993C11.1772 8.88993 12.1267 9.3785 12.1267 10C12.1267 10.6215 11.1772 11.1101 9.96661 11.1101C8.75602 11.1101 7.80667 10.6215 7.80667 10C7.80667 9.3785 8.75449 8.88993 9.96661 8.88993ZM9.96661 9.05343C8.88489 9.05343 7.97015 9.488 7.97015 10C7.97015 10.512 8.88489 10.9466 9.96661 10.9466C11.0485 10.9466 11.9631 10.512 11.9631 10C11.9631 9.488 11.0483 9.05343 9.96661 9.05343Z" fill="#E6FFF8"/>
</svg>
