<svg width="30" height="38" viewBox="0 0 30 38" fill="none" xmlns="http://www.w3.org/2000/svg">
<path d="M29.7448 21.1734L25.9947 16.9514C25.977 16.9315 25.9541 16.9195 25.935 16.9015C25.8653 16.8337 25.7862 16.7784 25.6996 16.7379C25.6762 16.7265 25.6573 16.7082 25.6326 16.6988L15.3202 12.7252C15.113 12.6457 14.8865 12.6457 14.6796 12.7252L4.36714 16.6988C4.34266 16.7082 4.32355 16.7265 4.30015 16.7379C4.21378 16.7784 4.13414 16.8337 4.06472 16.9015C4.04562 16.9198 4.02275 16.9315 4.00499 16.9514L0.254928 21.1734C0.0399524 21.4154 -0.0466825 21.7555 0.0243445 22.0794C0.0953715 22.4032 0.314652 22.6681 0.608464 22.7847L3.7502 24.0354V32.5329C3.7502 32.9508 3.99692 33.3237 4.36714 33.4668L14.6796 37.4404C14.686 37.443 14.693 37.4418 14.6995 37.4441C14.8935 37.5188 15.1063 37.5185 15.3005 37.4438C15.307 37.4416 15.314 37.4427 15.3204 37.4401L25.6329 33.4665C26.0033 33.3234 26.2498 32.9508 26.2498 32.5329V24.0354L29.3915 22.7847C29.6853 22.6681 29.9046 22.4032 29.9757 22.0794C30.0467 21.7555 29.9601 21.4154 29.7448 21.1734ZM15.0001 14.716L22.5691 17.6325L15.0001 20.549L7.43109 17.6325L15.0001 14.716ZM4.94666 18.7896L13.5247 22.095L11.5679 25.0254L5.01726 22.4146L5.00084 22.4103L2.58529 21.4484L4.94666 18.7896ZM5.62495 24.7819L11.5856 27.1551C11.6876 27.195 11.7957 27.2158 11.9047 27.2164L11.9152 27.2184C11.9265 27.2184 11.9362 27.2107 11.9472 27.2101C12.0656 27.2044 12.1818 27.1753 12.2894 27.1231C12.3201 27.1092 12.3497 27.0938 12.3788 27.0764C12.4974 27.0083 12.6005 26.9136 12.6809 26.799L14.0625 24.7301V35.0886L5.62497 31.8377L5.62495 24.7819ZM24.3749 31.8377L15.9374 35.0883V24.7298L17.319 26.7987C17.3997 26.9139 17.5033 27.0094 17.6225 27.0775C17.6502 27.0941 17.679 27.1092 17.7083 27.1226C17.8175 27.1756 17.9357 27.2058 18.0557 27.2109C18.0659 27.2112 18.0748 27.2183 18.085 27.2183L18.0944 27.2166C18.2036 27.2161 18.3121 27.1953 18.4146 27.1551L24.3749 24.7819L24.3749 31.8377ZM24.9989 22.4104L24.9824 22.4147L18.4318 25.0258L16.475 22.0951L25.053 18.7898L27.4145 21.4485L24.9989 22.4104Z" fill="#3E6B8C"/>
<path d="M14.3375 10.466C14.5135 10.6524 14.7519 10.757 15.0005 10.757C15.2491 10.757 15.4875 10.6524 15.6634 10.466L18.3152 7.65611C18.6811 7.2681 18.6811 6.63916 18.3152 6.25147C17.949 5.86346 17.3555 5.86346 16.9893 6.25147L15.9378 7.36563V0.993524C15.9378 0.444725 15.5181 0 15.0005 0C14.4825 0 14.0628 0.444747 14.0628 0.993524V7.36563L13.0113 6.25147C12.6454 5.86346 12.0519 5.86346 11.6857 6.25147C11.3198 6.63919 11.3198 7.26813 11.6857 7.65611L14.3375 10.466Z" fill="#3E6B8C"/>
</svg>
