<svg width="20" height="20" viewBox="0 0 20 20" fill="none" xmlns="http://www.w3.org/2000/svg">
<path d="M19.9921 4.21223C19.9921 4.21039 19.9921 4.20829 19.9915 4.20671C19.9847 4.17309 19.9719 4.14131 19.9566 4.11163C19.9528 4.10401 19.9487 4.09666 19.9443 4.0893C19.9271 4.06094 19.9077 4.03441 19.8843 4.01103C19.8832 4.00971 19.8826 4.00788 19.881 4.00656L15.8642 0.115572C15.7872 0.0415004 15.6832 0 15.5752 0H4.33695C4.22696 0 4.12161 0.0428132 4.04464 0.118982L0.115178 4.00997C0.112995 4.01207 0.111903 4.0147 0.109993 4.01654C0.0878845 4.03965 0.0695991 4.06487 0.0534957 4.09218C0.0491287 4.09928 0.0450348 4.10637 0.0412135 4.11398C0.0262022 4.1434 0.0141925 4.17492 0.00791518 4.20828C0.00682343 4.21248 0.0070964 4.21642 0.00655049 4.22088C0.00300233 4.24137 0 4.2616 0 4.28313V19.6079C0 19.8243 0.182596 20 0.407493 20H19.5922C19.8171 20 19.9997 19.8243 19.9997 19.6079L20 4.28313C20 4.25871 19.997 4.23534 19.9921 4.21223ZM10.407 0.784322H15.4048L18.6126 3.89075H10.4068L10.407 0.784322ZM4.5086 0.784322H9.59178V3.89075H1.37135L4.5086 0.784322ZM19.1838 19.2155H0.814467V4.67551H19.1838V19.2155Z" fill="#13A518"/>
<path d="M9.71182 15.6337C9.79152 15.7103 9.89578 15.7484 10 15.7484C10.1043 15.7484 10.2086 15.7103 10.288 15.6337L13.4653 12.5766C13.6244 12.4235 13.6244 12.1752 13.4653 12.0218C13.3062 11.8687 13.0482 11.8687 12.8888 12.0218L10.4073 14.4094L10.4075 8.53295C10.4075 8.31652 10.2249 8.14081 10 8.14081C9.77515 8.14081 9.59255 8.31653 9.59255 8.53295V14.4094L7.11098 12.0218C6.95186 11.8687 6.69393 11.8687 6.53454 12.0218C6.37542 12.175 6.37542 12.4232 6.53454 12.5766L9.71182 15.6337Z" fill="#13A518"/>
</svg>
