<svg width="20" height="10" viewBox="0 0 20 10" fill="none" xmlns="http://www.w3.org/2000/svg">
<path d="M19.4937 0.000154848C19.4708 0.000451595 19.4478 0.00282542 19.4254 0.00727632C19.4246 0.00742467 19.4236 0.00772142 19.4227 0.00786978L15.9022 0.140359C15.806 0.141843 15.7146 0.179378 15.6486 0.244511C15.5826 0.309642 15.5475 0.396732 15.5513 0.486197C15.5552 0.57581 15.5977 0.660079 15.669 0.720017C15.7404 0.779955 15.8348 0.810666 15.9307 0.80503L18.7085 0.699245L14.6105 5.29535C14.3856 5.18571 14.1339 5.11746 13.8638 5.11746C13.3433 5.11746 12.8822 5.35217 12.5825 5.70883L9.82075 3.86735C9.8448 3.76408 9.85913 3.65771 9.85913 3.54807C9.85913 2.71279 9.12531 2.02913 8.22891 2.02913C7.33234 2.02913 6.59644 2.71279 6.59644 3.54807C6.59644 3.76765 6.64947 3.97521 6.74072 4.16409L2.59178 7.26073C2.32105 7.07439 1.99078 6.96029 1.63023 6.96029C0.733658 6.96029 0 7.64319 0 8.47851C0 9.31379 0.733821 10 1.63023 10C2.52679 10 3.25984 9.31383 3.25984 8.47851C3.25984 8.21902 3.18292 7.97807 3.05855 7.76386L7.17121 4.693C7.45754 4.92223 7.82443 5.06629 8.22877 5.06629C8.74872 5.06629 9.20895 4.83231 9.50786 4.47625L12.2697 6.31701C12.2457 6.42027 12.2313 6.52664 12.2313 6.63644C12.2313 7.47172 12.9672 8.15538 13.8638 8.15538C14.7604 8.15538 15.494 7.47172 15.494 6.63644C15.494 6.29238 15.3646 5.97784 15.1555 5.72253L19.1797 1.21265L19.2856 3.68765V3.6875C19.2894 3.77578 19.3308 3.85886 19.4006 3.9188C19.4702 3.97859 19.5625 4.01019 19.6573 4.00649C19.7521 4.00293 19.8412 3.96435 19.9056 3.89952C19.9697 3.83453 20.0037 3.74848 19.9997 3.6602L19.8562 0.35569C19.8632 0.262666 19.828 0.171124 19.7592 0.103472C19.6903 0.0358197 19.5941 -0.00171714 19.4939 6.03818e-05L19.4937 0.000154848ZM8.22873 2.69386C8.73975 2.69386 9.1449 3.07203 9.1449 3.54813C9.1449 3.64694 9.1242 3.73937 9.09203 3.8272H9.09187C9.07388 3.85584 9.0605 3.88684 9.05222 3.91934C8.90507 4.20509 8.59534 4.40166 8.22875 4.40166C7.93637 4.40166 7.68107 4.2754 7.51323 4.08031C7.49731 4.0536 7.47772 4.02927 7.45463 4.00761C7.36386 3.87512 7.30971 3.71859 7.30971 3.54796C7.30971 3.07186 7.71772 2.69368 8.22874 2.69368L8.22873 2.69386ZM13.8637 5.78279C14.0532 5.78279 14.2285 5.83457 14.3738 5.92433H14.3736C14.4113 5.97893 14.4653 6.02195 14.529 6.04836C14.6843 6.20088 14.7805 6.40666 14.7805 6.63646C14.7805 7.11256 14.3745 7.49001 13.8637 7.49001C13.3527 7.49001 12.9447 7.11243 12.9447 6.63646C12.9447 6.54047 12.9655 6.45027 12.9963 6.36451V6.36436C13.0173 6.33246 13.0324 6.2973 13.0408 6.2605C13.1896 5.97713 13.4988 5.78278 13.8637 5.78278L13.8637 5.78279ZM1.63004 7.62503C2.14107 7.62503 2.54622 8.00261 2.54622 8.47858C2.54622 8.95467 2.14093 9.33479 1.63004 9.33479C1.11902 9.33479 0.713254 8.95467 0.713254 8.47858C0.713254 8.00249 1.11918 7.62503 1.63004 7.62503Z" fill="#3E6B8C"/>
</svg>
