<svg width="24" height="23" viewBox="0 0 24 23" fill="none" xmlns="http://www.w3.org/2000/svg">
<path d="M4.70672 0.000421808C4.43677 0.00856842 4.18057 0.120888 3.99234 0.313986L0.31941 3.97413C0.117987 4.16688 0.00283481 4.43242 5.17452e-05 4.71064C-0.00273132 4.98887 0.10685 5.25649 0.304274 5.4532C0.501872 5.64993 0.770449 5.75931 1.0496 5.75653C1.32875 5.75376 1.59508 5.63901 1.78852 5.43829L5.46163 1.77797C5.66305 1.58297 5.77664 1.31497 5.77646 1.03524C5.77629 0.755302 5.66253 0.48731 5.46111 0.292509C5.25951 0.0976806 4.98745 -0.00770747 4.70674 0.000439582L4.70672 0.000421808ZM19.2628 0.000421808C18.9856 0.000595177 18.72 0.111011 18.525 0.307228C18.3298 0.503445 18.2214 0.76916 18.2241 1.04548C18.2265 1.3216 18.3397 1.58542 18.5384 1.778L22.2115 5.43832C22.4049 5.63904 22.6712 5.75379 22.9504 5.75656C23.2296 5.75934 23.4982 5.64996 23.6957 5.45323C23.8932 5.25649 24.0027 4.98886 23.9999 4.71068C23.9972 4.4325 23.882 4.16692 23.6806 3.97416L20.0077 0.314017C19.812 0.113642 19.5434 0.000625928 19.2628 0.00045287L19.2628 0.000421808ZM11.9997 1.04596C9.33699 1.04596 6.67535 2.05458 4.64928 4.07328C0.59785 8.1106 0.59785 14.6871 4.64928 18.7247C5.00273 19.0769 5.38072 19.3865 5.76945 19.6772L4.86636 21.2363H4.86653C4.71538 21.4745 4.66824 21.7638 4.7359 22.0373C4.80357 22.311 4.98012 22.5452 5.22483 22.6863C5.46974 22.8272 5.76163 22.8627 6.03312 22.7844C6.30482 22.7062 6.53287 22.5211 6.66437 22.2717L7.54711 20.7489C10.358 22.0734 13.6409 22.0734 16.4516 20.7489L17.3343 22.2717H17.3345C17.466 22.5211 17.694 22.7062 17.9657 22.7844C18.2373 22.8627 18.5291 22.8272 18.774 22.6863C19.0188 22.5452 19.1953 22.311 19.263 22.0373C19.3306 21.7638 19.2835 21.4745 19.1323 21.2363L18.2294 19.6772C18.6182 19.3865 18.9983 19.0769 19.3517 18.7247C23.4031 14.6874 23.4031 8.11087 19.3517 4.07328C17.3258 2.05462 14.6619 1.04596 11.9995 1.04596H11.9997ZM11.9997 3.10469C14.1263 3.10469 16.254 3.91451 17.8829 5.53745C21.1403 8.78349 21.1403 14.0146 17.8829 17.2606C14.6255 20.5066 9.37604 20.5066 6.11874 17.2606C2.86135 14.0146 2.86135 8.7834 6.11874 5.53745C7.74735 3.91451 9.87307 3.10469 11.9997 3.10469V3.10469ZM11.9835 5.69728V5.69711C11.708 5.70144 11.4453 5.81463 11.2535 6.01189C11.0616 6.20914 10.9564 6.47417 10.9607 6.74872V12.9611C10.9567 13.2382 11.0644 13.5054 11.2597 13.7028C11.4551 13.9002 11.7215 14.0113 11.9997 14.0113C12.2778 14.0113 12.5443 13.9002 12.7396 13.7028C12.9349 13.5053 13.0426 13.2382 13.0386 12.9611V6.74872C13.0431 6.46861 12.9334 6.19857 12.7344 6.00026C12.5356 5.80214 12.2646 5.69276 11.9835 5.6971L11.9835 5.69728ZM11.9997 15.0318C11.7242 15.0318 11.4598 15.1408 11.265 15.3349C11.0701 15.5293 10.9607 15.7925 10.9607 16.0671C10.9607 16.3417 11.0701 16.6051 11.265 16.7993C11.4598 16.9934 11.7241 17.1024 11.9997 17.1024C12.2752 17.1024 12.5396 16.9934 12.7344 16.7993C12.9292 16.6051 13.0386 16.3417 13.0386 16.0671C13.0386 15.7925 12.9292 15.5293 12.7344 15.3349C12.5396 15.1408 12.2752 15.0318 11.9997 15.0318Z" fill="#D64045"/>
</svg>
