<svg width="24" height="24" viewBox="0 0 24 24" fill="none" xmlns="http://www.w3.org/2000/svg">
<path d="M14.1301 22.272C9.1272 23.317 4.13056 20.625 2.24666 15.8724C0.45731 11.3595 1.98823 6.27397 5.87919 3.48546L5.50694 6.00022C5.44595 6.41092 5.72932 6.79311 6.13972 6.85411C6.17702 6.85957 6.21391 6.86229 6.25059 6.86229C6.61697 6.86229 6.93745 6.59381 6.99278 6.22066L7.56664 2.34479C7.59598 2.14762 7.54568 1.94667 7.42683 1.78661C7.30778 1.62635 7.13046 1.52022 6.93344 1.49106L3.06113 0.918003C2.64445 0.856965 2.26883 1.14118 2.20809 1.55169C2.14731 1.96238 2.43068 2.34458 2.84086 2.40537L4.49205 2.64994C0.422922 5.90534 -1.11617 11.4687 0.850085 16.4265C2.69266 21.0758 7.14083 24 11.9694 24C12.7844 24 13.611 23.9167 14.437 23.7441C14.8432 23.6594 15.1037 23.2612 15.0191 22.8546C14.934 22.4478 14.5338 22.1869 14.13 22.2723L14.1301 22.272ZM21.509 21.4569L19.7052 21.1892C23.627 17.9126 25.0843 12.4495 23.1493 7.57159C20.9957 2.13957 15.2811 -0.937285 9.56499 0.255333C9.15879 0.339863 8.89782 0.73798 8.9827 1.14451C9.06738 1.55143 9.46562 1.8132 9.87121 1.72723C14.8731 0.683677 19.8686 3.3759 21.753 8.12688C23.4853 12.4944 22.1085 17.3983 18.4927 20.2378L18.8442 17.8631C18.9052 17.4524 18.6218 17.0702 18.2114 17.0092C17.8027 16.949 17.4191 17.232 17.3584 17.6425L16.7845 21.5171C16.7552 21.7142 16.8053 21.9152 16.9243 22.0752C17.043 22.2355 17.2203 22.3421 17.4177 22.3712L21.2892 22.9453C21.3265 22.9507 21.3634 22.9535 21.4 22.9535C21.7664 22.9535 22.0869 22.685 22.1422 22.3118C22.203 21.9007 21.9196 21.5186 21.509 21.4575L21.509 21.4569Z" fill="#2871B9"/>
</svg>
