<svg width="20" height="20" viewBox="0 0 20 20" fill="none" xmlns="http://www.w3.org/2000/svg">
<path d="M17.7613 2.61005C16.9575 1.76063 15.979 1.09968 14.8528 0.645259C13.8066 0.223142 12.658 0 11.5318 0C11.0627 0 10.5967 0.0385473 10.1469 0.114282C7.26184 0.600465 4.94004 1.60624 3.24668 3.10333C1.97297 4.22933 1.04278 5.64255 0.467983 7.31908C0.461357 7.3351 0.455834 7.35165 0.451141 7.36849C0.263943 7.92281 0.115395 8.50533 0.00605501 9.1159C-0.0306671 9.32085 0.103244 9.5182 0.310049 9.56326C0.361958 9.57466 0.415523 9.57548 0.467984 9.56597C2.94932 9.11508 4.96987 8.88652 6.47359 8.88652C7.41042 8.88652 8.14793 8.97528 8.66533 9.15038C9.38072 9.39225 9.45804 9.72451 9.48342 9.83391C9.65184 10.5595 8.76584 11.7615 7.22594 12.8962C5.46713 14.1924 3.13515 15.2326 0.828257 15.7506C0.676952 15.7845 0.523159 15.8176 0.371579 15.8488C0.274114 15.8684 0.187414 15.9232 0.128881 16.003C0.0645483 16.091 0.0405276 16.2012 0.0623397 16.3073C0.472359 18.3034 1.24466 19.5708 2.29551 19.9734C2.34134 19.991 2.39021 20 2.43908 20C2.44764 20 2.45647 19.9997 2.46503 19.9992C4.73269 19.8529 6.97526 19.4479 9.13025 18.7953C10.8546 18.2733 12.5269 17.5927 14.1013 16.7721C16.7894 15.3711 18.2451 14.0616 18.3055 14.0065C18.3323 13.9821 18.3558 13.9541 18.3748 13.9237C19.3307 12.3864 19.8666 10.9121 19.9674 9.5413C20.1722 6.7485 19.4096 4.35169 17.7613 2.61005ZM1.0044 16.5087C3.41561 15.9674 5.85645 14.8775 7.70079 13.5184C9.57304 12.1386 10.5044 10.7321 10.2554 9.66008C10.1223 9.08703 9.67414 8.66792 8.92311 8.41379C8.31402 8.20775 7.51305 8.10786 6.4738 8.10786C5.04084 8.10786 3.16716 8.30657 0.897807 8.69855C0.966282 8.39805 1.04552 8.10596 1.13499 7.82175L2.65991 7.6358C2.66184 7.63553 2.66377 7.63526 2.6657 7.63499C4.14567 7.43221 5.42673 7.32933 6.47348 7.32933C7.60166 7.32933 8.4871 7.44334 9.18015 7.67761C10.5273 8.13312 10.9152 9.00667 11.0268 9.48659C11.1527 10.0292 11.1364 10.9115 10.3431 12.0339C9.84446 12.7394 9.11499 13.4485 8.17511 14.141C6.36909 15.4719 4.29524 16.4761 2.33604 16.9687C2.08893 17.0309 1.49887 17.1528 1.12171 17.2293C1.04882 17.01 0.981718 16.7757 0.921531 16.5268C0.949141 16.5209 0.976785 16.515 1.0044 16.5087ZM19.1771 9.48433C19.0865 10.716 18.5992 12.0561 17.7286 13.4685C17.4826 13.6824 16.0899 14.8535 13.7298 16.0838C11.3398 17.3295 7.45749 18.8795 2.50599 19.2156C2.16748 19.0606 1.85824 18.7473 1.58549 18.2828C1.52695 18.1829 1.47062 18.0765 1.41651 17.9647C1.7945 17.8873 2.29701 17.7823 2.53196 17.7233C4.58976 17.2059 6.76249 16.1552 8.64995 14.7642C9.65775 14.0214 10.446 13.2524 10.993 12.4785C11.9511 11.1228 11.9599 10.0093 11.7984 9.31381C11.6504 8.67615 11.1468 7.52005 9.43743 6.94207C8.65992 6.67902 7.69049 6.55144 6.47312 6.55144C5.39053 6.55144 4.07377 6.65677 2.55903 6.86416L1.43142 7.00179C2.7937 3.69787 5.75964 1.64323 10.2803 0.88151C10.6859 0.813102 11.1069 0.778625 11.5313 0.778625C13.7015 0.778625 15.7607 1.63944 17.181 3.14057C18.6761 4.71911 19.3664 6.91302 19.1772 9.48427L19.1771 9.48433Z" fill="#E6FFF8"/>
</svg>
