<svg width="16" height="16" viewBox="0 0 16 16" fill="none" xmlns="http://www.w3.org/2000/svg">
<path fill-rule="evenodd" clip-rule="evenodd" d="M15.2724 10.909C15.2724 13.309 11.0543 13.3818 9.45446 14.1817C8.73951 14.5395 7.99988 16 7.99988 16C7.99988 16 7.26024 14.5396 6.5453 14.1817C4.94535 13.3818 0.727352 13.309 0.727352 10.909C0.727352 9.30903 1.45458 8.14543 1.45458 6.54535C1.45458 4.14534 0 2.90918 0 2.90918L2.90916 0C2.90916 0 3.85457 1.45459 5.45452 1.45459C7.05459 1.45459 8 0 8 0C8 0 8.94541 1.45459 10.5455 1.45459C12.1454 1.45459 13.0908 0 13.0908 0L16 2.90918C16 2.90918 14.5454 4.14547 14.5454 6.54535C14.5454 8.14543 15.2724 9.30903 15.2724 10.909Z" fill="#1B2E49" fill-opacity="0.6"/>
</svg>
