<svg width="24" height="24" viewBox="0 0 24 24" fill="none" xmlns="http://www.w3.org/2000/svg">
<path d="M12 0C18.6277 0 24 5.3723 24 12C24 18.6277 18.6277 24 12 24C5.37231 24 0 18.6277 0 12C0 5.3723 5.37231 0 12 0ZM12 2.3999C6.69815 2.3999 2.39969 6.69805 2.39969 12.0002C2.39969 17.3024 6.69784 21.6005 12 21.6005C17.3022 21.6005 21.6003 17.3024 21.6003 12.0002C21.6003 6.69805 17.3022 2.3999 12 2.3999ZM12 5.99995C12.6154 5.99995 13.1226 6.46321 13.1919 7.06006L13.2 7.20009V11.4769L16.452 14.7549C16.8828 15.1893 16.9133 15.8701 16.5455 16.3394L16.4452 16.4521C16.0109 16.8829 15.33 16.9134 14.8607 16.5456L14.748 16.4453L11.148 12.8164C10.9621 12.6291 10.8444 12.3868 10.8103 12.1281L10.8 11.9712V7.20008C10.8 6.53731 11.3372 5.99995 12 5.99995Z" fill="#D66D40"/>
</svg>
