<svg width="13" height="13" viewBox="0 0 13 13" fill="none" xmlns="http://www.w3.org/2000/svg">
<path d="M4.90993 3.6237C4.5652 3.6237 4.2345 3.76066 3.99074 4.00451C3.74689 4.24827 3.60992 4.57897 3.60992 4.92371V8.10439C3.60992 8.44913 3.74689 8.77983 3.99074 9.02359C4.23449 9.26744 4.5652 9.4044 4.90993 9.4044H8.09062C8.43536 9.4044 8.76606 9.26744 9.00981 9.02359C9.25366 8.77983 9.39063 8.44913 9.39063 8.10439V4.92371C9.39063 4.57897 9.25367 4.24827 9.00981 4.00451C8.76606 3.76067 8.43536 3.6237 8.09062 3.6237H4.90993ZM8.52396 4.92371V8.10439L8.52405 8.10449C8.52405 8.2194 8.4784 8.32957 8.39705 8.41082C8.3158 8.49217 8.20563 8.53783 8.09072 8.53783H4.91003C4.79512 8.53783 4.68495 8.49217 4.6037 8.41082C4.52235 8.32957 4.4767 8.2194 4.4767 8.10449V4.9238C4.4767 4.80889 4.52236 4.69872 4.6037 4.61747C4.68495 4.53612 4.79512 4.49047 4.91003 4.49047H8.09072C8.20563 4.49047 8.3158 4.53613 8.39705 4.61747C8.4784 4.69872 8.52405 4.8089 8.52405 4.9238L8.52396 4.92371ZM12.6622 8.58552H12.6623C12.6134 8.73264 12.4899 8.84253 12.3382 8.87388C12.1865 8.90512 12.0295 8.85308 11.9265 8.7373C11.8236 8.62161 11.7901 8.45969 11.8389 8.31258C12.2876 7.00475 12.2395 5.57761 11.7039 4.30286C11.1684 3.02811 10.1827 1.99486 8.93453 1.39975C7.68637 0.804647 6.26319 0.689478 4.93545 1.07601C3.60788 1.46243 2.46883 2.3237 1.7352 3.49574C1.00153 4.66768 0.724515 6.06852 0.956932 7.43167C1.18927 8.79465 1.91483 10.0245 2.99535 10.8872C4.07589 11.7499 5.43594 12.1851 6.81663 12.1098C8.19721 12.0346 9.50207 11.4543 10.4824 10.4793C10.5924 10.3694 10.7526 10.3265 10.9027 10.3667C11.0529 10.407 11.1701 10.5242 11.2104 10.6744C11.2506 10.8245 11.2077 10.9847 11.0978 11.0947C9.97072 12.2225 8.46856 12.8967 6.87685 12.9892C5.28515 13.0817 3.71498 12.5858 2.46499 11.596C1.215 10.6062 0.372401 9.19159 0.0974184 7.62098C-0.177564 6.05042 0.134272 4.4336 0.973674 3.07813C1.81306 1.7226 3.12149 0.722835 4.64985 0.268872C6.17834 -0.184967 7.82038 -0.0611565 9.26352 0.616705C10.7067 1.29457 11.8502 2.47918 12.4769 3.94522C13.1036 5.41131 13.1695 7.05658 12.6622 8.5683L12.6622 8.58552Z" fill="#3E6B8C"/>
</svg>
