<svg width="24" height="13" viewBox="0 0 24 13" fill="none" xmlns="http://www.w3.org/2000/svg">
<path d="M21.7061 7.2177C20.226 6.28868 18.4749 5.74085 16.7235 5.55028C14.9476 5.35969 13.147 5.57404 11.445 6.0506C9.74302 6.52698 8.11502 7.33685 6.73381 8.40892C6.04317 8.95676 5.40194 9.55228 4.83449 10.2193C4.26722 10.8863 3.79852 11.6247 3.40386 12.4108C3.30527 12.6251 3.37926 12.8634 3.60121 12.9586C3.82317 13.0538 4.06991 12.9824 4.19324 12.768C4.56316 12.0534 5.03184 11.3864 5.54991 10.7671C6.06799 10.1478 6.68464 9.57608 7.32586 9.07576C8.63316 8.07528 10.1378 7.31296 11.7164 6.81281C13.3196 6.31248 14.997 6.09814 16.6743 6.21729C18.3515 6.33642 20.0043 6.76512 21.4595 7.57516C21.5828 7.64661 21.7062 7.59893 21.7802 7.50371C21.8543 7.4321 21.8296 7.2892 21.7062 7.21775L21.7061 7.2177Z" fill="#3E6B8C"/>
<path d="M3.15725 2.07238C1.40587 2.07238 0 3.43026 0 5.12146C0 6.81283 3.15725 10.7908 3.15725 10.7908C3.15725 10.7908 6.33907 6.81275 6.33907 5.12146C6.33907 3.45404 4.90844 2.07238 3.15725 2.07238ZM3.15725 6.93185C2.1459 6.93185 1.3073 6.12198 1.3073 5.14528C1.3073 4.16858 2.1459 3.35871 3.15725 3.35871C4.1686 3.35871 5.00719 4.16858 5.00719 5.14528C5.00719 6.12198 4.19322 6.93185 3.15725 6.93185Z" fill="#3E6B8C"/>
<path d="M24 2.33441C24 1.04816 22.9147 0 21.5828 0C20.2509 0 19.1656 1.04816 19.1656 2.33441C19.1656 3.62066 21.5828 6.66982 21.5828 6.66982C21.5828 6.66982 24 3.64452 24 2.33441ZM20.1767 2.33441C20.1767 1.57205 20.818 0.976531 21.5828 0.976531C22.3474 0.976531 22.9888 1.59583 22.9888 2.33441C22.9888 3.09676 22.3476 3.69229 21.5828 3.69229C20.8182 3.69229 20.1767 3.09676 20.1767 2.33441Z" fill="#3E6B8C"/>
</svg>
